HIERARCHY
ROOT pelvis
{
	OFFSET 0.000000 0.000000 0.000000
	CHANNELS 6 Xposition Yposition Zposition Zrotation Xrotation Yrotation
	JOINT lfemur
	{
		OFFSET 11.446000 0.000000 0.000000
		CHANNELS 3 Zrotation Xrotation Yrotation
		JOINT ltibia
		{
			OFFSET 0.000000 -42.030400 0.000000
			CHANNELS 3 Zrotation Xrotation Yrotation
			JOINT lfoot
			{
				OFFSET 0.000000 -39.930200 0.000000
				CHANNELS 3 Zrotation Xrotation Yrotation
				JOINT ltoes
				{
					OFFSET 0.000000 0.000000 11.775800
					CHANNELS 3 Zrotation Xrotation Yrotation
					End Site
					{
					    OFFSET 0.000000 0.000000 5.000000
					}
				}
			}
		}
	}
	JOINT rfemur
	{
		OFFSET -11.446000 0.000000 0.000000
		CHANNELS 3 Zrotation Xrotation Yrotation
		JOINT rtibia
		{
			OFFSET 0.000000 -42.030400 0.000000
			CHANNELS 3 Zrotation Xrotation Yrotation
			JOINT rfoot
			{
				OFFSET 0.000000 -39.930200 0.000000
				CHANNELS 3 Zrotation Xrotation Yrotation
				JOINT rtoes
				{
					OFFSET 0.000000 0.000000 11.775800
					CHANNELS 3 Zrotation Xrotation Yrotation
					End Site
					{
					    OFFSET 0.000000 0.000000 5.000000
					}
				}
			}
		}
	}
	JOINT thorax
	{
		OFFSET 0.000000 11.255600 -5.000000
		CHANNELS 3 Zrotation Xrotation Yrotation
		JOINT head
		{
			OFFSET 0.000000 43.799300 0.000000
			CHANNELS 3 Zrotation Xrotation Yrotation
			End Site
			{
			    OFFSET 0.000000 5.000000 0.000000
			}
		}
		JOINT lclavicle
		{
			OFFSET 0.000000 39.863000 0.000000
			CHANNELS 3 Zrotation Xrotation Yrotation
			JOINT lhumerus
			{
				OFFSET 17.380600 4.958300 0.000000
				CHANNELS 3 Zrotation Xrotation Yrotation
				JOINT lradius
				{
					OFFSET 0.000000 -27.561300 0.000000
					CHANNELS 3 Zrotation Xrotation Yrotation
					JOINT lhand
					{
						OFFSET 0.000000 -26.933000 0.000000
						CHANNELS 3 Zrotation Xrotation Yrotation
						End Site
						{
						    OFFSET 0.000000 -5.000000 0.000000
						}
					}
				}
			}
		}
		JOINT rclavicle
		{
			OFFSET 0.000000 39.863000 0.000000
			CHANNELS 3 Zrotation Xrotation Yrotation
			JOINT rhumerus
			{
				OFFSET -17.380600 4.958300 0.000000
				CHANNELS 3 Zrotation Xrotation Yrotation
				JOINT rradius
				{
					OFFSET 0.000000 -27.561300 0.000000
					CHANNELS 3 Zrotation Xrotation Yrotation
					JOINT rhand
					{
						OFFSET 0.000000 -26.933000 0.000000
						CHANNELS 3 Zrotation Xrotation Yrotation
						End Site
						{
						    OFFSET 0.000000 -5.000000 0.000000
						}
					}
				}
			}
		}
	}
}
MOTION
Frames:	22
Frame Time:	0.0333333
-53.4331 74.7904 -9.0788 -16.0388 -9.84113 61.4875 3.69527 -58.5272 22.9267 1.39178 65.8681 -0.537176 9.22858 0.0229031 9.832 -1.72941e-015 -5 -1.59635e-015 2.09171 18.1545 -8.79384 -0.0796513 22.8669 -2.57302 1.13609 -6.39428 -4.036 -1.86854e-015 -5 -3.1927e-015 4.98684 16.7803 15.1462 5.13573 -25.2121 -4.31219 3.97569e-016 -9.93923e-016 -0 8.62227 6.16071 -36.643 126.261 -42.4257 97.2617 -0.121036 1.39339 9.95813 3.97569e-016 -9.93923e-016 -0 -23.1053 -5.88402 41.2213 -130.996 -39.4937 -100.928 0.178296 1.68794 -12.0995 
-48.5056 76.0634 -6.07199 -17.9492 -9.42668 63.6152 0.294538 -56.4385 16.1786 1.46265 66.5711 -0.532694 10.482 -3.79832 9.4667 -4.77083e-015 -5 -0 1.89876 16.9735 -5.94657 -0.065903 24.3379 -3.55102 2.04576 6.89343 0.770639 2.78262e-016 -5 3.1927e-015 3.88798 15.0523 15.7647 4.65385 -26.4389 -3.16085 -4.96962e-016 1.61513e-015 -0 7.26697 6.55921 -37.6437 122.271 -44.5235 94.0826 -0.159608 1.59762 11.436 -4.96962e-016 1.61513e-015 -0 -22.7327 -5.61385 43.3034 -129.584 -40.4228 -99.848 0.203099 1.79958 -12.9125 
-43.2645 77.4306 -2.43824 -18.7766 -9.48353 66.8175 -0.168584 -52.2511 14.659 1.45143 66.3833 -0.351664 11.0884 -8.31367 8.01924 -1.59028e-015 -5 -0 3.76331 16.5767 -1.08736 -0.0899015 23.6448 -1.11829 -2.3861 23.8568 3.42891 -3.31969e-015 -5 -1.59635e-015 1.50219 14.5358 14.5328 6.26437 -27.413 -2.33513 -3.97569e-016 -4.96962e-017 1.59028e-015 7.8559 5.27835 -36.7795 116.755 -46.9386 89.579 -0.0977891 1.25455 8.9534 -3.97569e-016 -4.96962e-017 1.59028e-015 -20.4661 -4.92985 46.6159 -126.542 -42.267 -97.4821 0.207359 1.81771 -13.0424 
-38.1509 77.9986 -0.483177 -19.4251 -9.09321 71.2222 -4.1505 -48.4011 10.7933 1.3326 64.944 -0.0230166 12.6343 -10.9773 8.28101 -2.31585e-015 -5 7.98176e-016 3.419 9.9763 -4.82425 -0.240175 35.6416 0.0278877 -2.72087 22.6038 2.96599 -0 -5 -0 1.63927 15.275 11.1754 5.23834 -29.8298 -1.90376 -7.95139e-016 -6.5102e-015 1.59028e-015 7.22491 1.89787 -39.4882 112.157 -48.5771 85.7487 -0.190791 1.74489 12.5082 -7.95139e-016 -6.5102e-015 1.59028e-015 -18.2855 -3.90093 48.0069 -120.947 -45.1532 -93.011 0.185579 1.72098 -12.3336 
-32.7247 78.5566 1.07397 -19.0724 -6.61622 75.3034 -7.81845 -43.2179 9.71744 1.15856 62.5785 0.185562 12.9865 -13.2526 5.56441 -5.87415e-015 -5 5.58723e-015 -1.09537 1.48952 -9.98298 -0.615753 51.6715 0.446093 -0.371672 15.2169 -3.15416 2.78262e-016 -5 3.1927e-015 -1.54203 16.1366 8.74821 6.33883 -31.4192 -2.92777 -7.95139e-016 -2.98177e-016 -0 8.41497 -3.97437 -43.239 108.639 -49.6278 82.7817 -0.138448 1.4897 10.6538 -7.95139e-016 -2.98177e-016 -0 -15.9587 -2.04048 45.0856 -115.301 -47.492 -88.3731 0.189162 1.73766 -12.4553 
-27.0695 78.8888 3.04768 -18.8003 -5.68904 77.8096 -7.61953 -37.3603 11.2859 0.99426 60.035 0.485792 13.1991 -16.77 1.92838 -4.423e-015 -5 3.99088e-015 -4.6992 -8.44484 -11.9048 -1.4635 66.4119 1.24015 0.157217 9.89136 -5.84693 2.90229e-015 -5 -3.1927e-015 -2.88079 17.0066 7.3645 7.30715 -32.0285 -3.5326 -1.10348e-032 3.97569e-016 1.59028e-015 9.68545 -10.2731 -48.4209 109.981 -49.247 83.9165 -0.0628913 1.0082 7.18328 -1.10348e-032 3.97569e-016 1.59028e-015 -14.2191 1.48867 41.738 -114.194 -47.8903 -87.4522 0.14608 1.52968 -10.9427 
-20.8808 79.0478 4.67691 -17.9971 -3.66737 81.217 -9.64505 -29.4522 11.308 0.737723 54.8213 0.745229 12.5454 -19.5829 -1.30305 7.95139e-016 -5 -0 -10.6702 -18.9443 -13.9462 -3.70194 78.1479 3.44164 -0.630358 2.58029 -4.68971 -0 -5 -0 -4.78847 17.5789 4.84008 7.27255 -31.9509 -3.58883 -7.95139e-016 -5.96354e-016 -7.95139e-016 11.2506 -14.6973 -53.1438 116.436 -47.0638 89.3149 -0.100107 1.26891 9.05801 -7.95139e-016 -5.96354e-016 -7.95139e-016 -11.3592 5.81758 38.6327 -118.547 -46.2112 -91.0536 0.192071 1.75072 -12.5502 
-14.4159 79.4268 5.56228 -18.1879 -1.79074 83.2663 -11.9896 -21.7395 9.84691 0.505195 48.0415 0.767216 12.1002 -19.4732 -2.78301 -3.08179e-016 -5 5.58723e-015 -15.773 -31.5643 -14.3506 -9.47184 84.7834 9.22413 -1.30101 -3.37873 -0.922041 -1.0734e-015 -5 -3.1927e-015 -4.79098 16.7934 1.42633 7.93671 -30.8832 -2.11342 -1.59028e-015 1.98785e-016 -0 11.8257 -16.1614 -55.4256 123.783 -43.7674 95.2956 -0.273746 2.0834 14.9918 -1.59028e-015 1.98785e-016 -0 -11.4278 8.66001 38.5992 -123.136 -44.0955 -94.7771 0.294139 2.1581 -15.543 
-6.7285 80.8039 6.59783 -17.8991 -0.95047 85.2504 -13.0136 -12.8894 6.28605 0.322738 40.2164 0.27367 12.4635 -14.4025 -4.60159 -4.23413e-015 -5 1.59635e-015 -17.7565 -41.7758 -14.3869 -7.83875 83.832 7.67913 -1.31482 -5.73957 2.6281 -5.46658e-015 -5 -0 -4.36295 16.0668 -1.82311 8.10686 -30.4035 -1.34671 7.95139e-016 -3.47873e-015 3.18055e-015 14.7829 -15.6573 -56.0803 127.947 -41.4412 98.5824 -0.470002 2.71148 19.6858 7.95139e-016 -3.47873e-015 3.18055e-015 -10.3641 11.0311 38.9105 -126.095 -42.5188 -97.1312 0.275645 2.09041 -15.0447 
1.86577 82.8903 7.07055 -17.4377 0.196992 86.3962 -13.3255 -4.52164 3.25189 0.197543 32.4365 -1.03423 14.1811 -4.16127 -9.19297 -3.73708e-015 -5 -6.38541e-015 -17.238 -48.7691 -13.0549 -2.98792 76.0526 2.92367 -1.24882 -5.505 2.38972 -3.77745e-016 -5 4.78906e-015 -4.67721 15.1777 -3.27906 8.24269 -30.1764 -1.73971 7.95139e-016 -2.78299e-015 -0 15.4998 -14.2314 -55.275 126.367 -42.3671 97.3455 -0.453551 2.66505 19.3334 7.95139e-016 -2.78299e-015 -0 -9.81457 12.6915 37.7634 -127.192 -41.8884 -97.9926 0.239233 1.95006 -14.0123 
11.2713 84.5372 7.78489 -16.5502 0.850417 86.9904 -12.1854 3.34865 -0.267332 0.118405 26.3377 -4.90704 23.7456 10.1656 -12.1486 6.08285e-015 -5 -3.1927e-015 -14.2536 -51.2459 -13.5997 -1.22496 63.8692 1.20351 -1.42276 -3.47058 0.0666534 -1.05358e-015 -5 1.59635e-015 -5.96651 13.6463 -3.57829 10.0056 -27.9375 -2.9363 -7.95139e-016 -1.98785e-015 -4.77083e-015 16.1082 -10.8202 -52.8815 120.343 -45.4298 92.5202 -0.353382 2.36077 17.0471 -7.95139e-016 -1.98785e-015 -4.77083e-015 -8.30454 13.6516 35.9916 -126.031 -42.5542 -97.0812 0.121132 1.39407 -9.96306 
20.9289 85.8057 8.3038 -15.2536 1.49723 89.2713 -10.671 4.70509 -5.59171 0.111627 30.0202 -4.71463 20.5168 24.3938 -17.8216 -2.78262e-016 -5 -3.1927e-015 -12.4549 -49.2837 -15.6401 -0.547416 50.035 0.550167 -1.60759 1.89663 2.29287 1.13305e-015 -5 1.59635e-015 -7.67389 12.29 -4.46443 10.6516 -25.9815 -5.23344 7.95139e-016 4.67144e-015 -7.95139e-016 17.0744 -7.01628 -50.4839 112.242 -48.5505 85.8194 -0.243759 1.96865 14.1459 7.95139e-016 4.67144e-015 -7.95139e-016 -6.96545 13.6853 31.3542 -124.398 -43.444 -95.7864 0.146558 1.53184 -10.9599 
29.818 85.9862 8.49992 -13.552 3.2351 91.237 -11.2937 6.72549 -8.64289 0.162644 31.3901 0.561193 14.7931 34.8689 -20.6213 -4.21431e-015 -5 6.38541e-015 -10.5636 -46.4756 -12.9756 -0.326937 41.1895 0.37995 -1.78233 3.19301 6.00804 -9.95167e-015 -5 9.9772e-016 -9.41242 12.0721 -5.67222 10.0133 -25.0318 -6.28253 7.95139e-016 1.49089e-015 7.95139e-016 16.9442 -4.37679 -46.1636 103.13 -50.957 78.0846 -0.263705 2.04605 14.7163 7.95139e-016 1.49089e-015 7.95139e-016 -7.86277 12.6467 27.9986 -124.463 -43.4094 -95.8387 0.19479 1.76263 -12.6387 
38.3968 85.2394 8.7763 -10.8349 3.92813 92.8809 -11.4316 6.0572 -10.4856 0.36851 43.8058 0.342038 9.305 33.1789 -12.5031 2.78262e-016 -5 3.1927e-015 -7.6346 -42.5727 -9.69685 -0.314869 40.5862 0.355556 -2.09665 7.18689 5.9335 -1.75428e-015 -5 3.99088e-016 -9.88531 12.874 -4.13582 7.1132 -25.011 -8.96353 1.59028e-015 9.93923e-017 -0 16.6621 -2.89061 -43.5255 93.5808 -52.4582 69.8408 -0.321504 2.25449 16.258 1.59028e-015 9.93923e-017 -0 -8.6228 12.0372 23.1834 -126.399 -42.3467 -97.3706 0.220822 1.87482 -13.4599 
46.6125 84.0117 9.54311 -7.6104 3.1599 93.7866 -9.51779 2.66118 -9.55485 0.891041 59.0364 -0.143043 7.66584 29.1351 -10.6191 1.72941e-015 -5 1.59635e-015 -3.35752 -37.0285 -6.94502 -0.464739 47.258 0.601268 -1.29091 -0.763793 -0.625769 -9.98375e-015 -5 -1.87571e-014 -8.99352 14.3428 -1.33782 5.09712 -24.6198 -11.4601 -7.95139e-016 -1.51573e-015 -9.93923e-017 16.939 -1.78022 -40.8306 86.7878 -52.973 63.9298 -0.400149 2.50818 18.1536 -7.95139e-016 -1.51573e-015 -9.93923e-017 -11.4096 9.74178 19.5012 -128.442 -41.1376 -98.9672 0.285868 2.12824 -15.3257 
54.5362 82.7823 11.4956 -5.80093 -1.73059 96.0906 -1.55806 -5.04916 -8.93797 2.60176 74.7531 -1.94187 7.36993 20.4607 -12.5774 1.59028e-015 -5 -0 5.26286 -30.0936 -0.837682 -0.506146 48.7149 0.80298 -1.68632 -7.72828 -5.93894 1.70584e-014 -5 -2.09521e-014 -2.83224 14.2681 -1.34155 3.82385 -24.138 -11.5078 7.95139e-016 -2.28602e-015 -3.97569e-016 16.0334 0.665204 -38.453 85.0652 -53.0348 62.428 -0.350543 2.35158 16.9832 7.95139e-016 -2.28602e-015 -3.97569e-016 -15.265 5.48698 17.8808 -129.432 -40.5188 -99.732 0.292551 2.15255 -15.5061 
61.9122 81.7302 12.3921 -5.23747 -3.71286 97.1958 2.27844 -14.8108 -6.98212 11.8946 85.8518 -11.3801 5.49743 13.8439 -11.0118 -1.0734e-015 -5 -3.1927e-015 8.5371 -23.87 -1.79055 -0.486403 48.058 0.586162 -3.80604 -13.3531 -8.96037 -1.8149e-014 -5 -6.38541e-015 -0.189063 13.3064 -1.7199 4.60885 -23.45 -10.1114 4.27597e-032 -1.54058e-015 1.59028e-015 15.2973 4.64548 -35.3483 86.9066 -52.9673 64.0337 -0.340886 2.31976 16.7458 4.27597e-032 -1.54058e-015 1.59028e-015 -19.4793 0.149651 17.2317 -129.693 -40.3519 -99.9331 0.340578 2.31848 -16.7375 
69.3225 82.0421 12.8639 -5.04436 -3.67465 96.9047 3.12147 -23.7618 -4.31778 75.2524 89.0556 -74.8685 3.87383 9.11396 -8.83779 -1.65984e-015 -5 -7.98176e-016 9.057 -17.2975 -2.5308 -0.430468 45.9733 0.403557 -4.41609 -15.3349 -8.12616 -1.6509e-014 -5 -6.38541e-015 -0.783933 12.7133 2.36793 4.53088 -24.0554 -11.3785 1.59028e-015 -3.18055e-015 -1.59028e-015 15.4844 7.47201 -35.8326 90.7684 -52.7237 67.397 -0.363747 2.39449 17.3017 1.59028e-015 -3.18055e-015 -1.59028e-015 -20.7296 -3.3205 15.1589 -131.491 -39.1563 -101.305 0.331516 2.28832 -16.5146 
77.1354 83.3421 12.9315 -4.74986 -2.00337 95.9544 0.906223 -30.3009 -2.70362 12.9937 86.1565 -12.7138 2.80338 5.70758 -7.1473 5.66527e-016 -5 7.98176e-016 7.8078 -10.0343 -2.12495 -0.361726 43.0409 0.173299 -4.71089 -13.4572 -5.84829 2.35559e-015 -5 7.98176e-016 -2.97702 12.0795 4.39156 4.68139 -24.84 -10.264 -7.95139e-016 9.74045e-015 1.59028e-015 15.375 11.691 -34.7209 95.5636 -52.2226 71.561 -0.491828 2.772 20.1431 -7.95139e-016 9.74045e-015 1.59028e-015 -20.3878 -6.39605 18.713 -133.366 -37.8227 -102.713 0.50257 2.80088 -20.3691 
85.5358 85.2879 13.2704 -4.52303 -2.66451 95.7131 0.340859 -34.7385 -2.76045 3.27767 77.1782 -3.11901 2.25296 4.3039 -6.11764 -7.442e-015 -5 -0 8.38843 -3.03111 -2.54238 -0.285545 39.1399 0.302188 -3.2277 -6.6595 -1.9458 3.59799e-015 -5 7.98176e-016 -1.92837 10.1829 6.06746 3.59018 -23.6928 -10.747 -9.93129e-032 -1.78906e-015 -3.18055e-015 13.651 16.562 -34.4653 98.1912 -51.8509 73.8345 -0.490281 2.76779 20.1103 -9.93129e-032 -1.78906e-015 -3.18055e-015 -20.0963 -6.55359 23.8758 -134.157 -37.2326 -103.299 0.481383 2.74334 -19.9332 
94.4176 87.4001 13.0447 -4.5185 -1.51766 95.7781 -2.78679 -35.6417 -3.43635 1.10482 62.4158 -1.07128 1.65717 5.83448 -2.61027 -2.91968e-015 -5 2.99316e-015 6.5845 3.13299 -1.9551 -0.226687 35.47 0.335325 -4.46356 3.81535 0.817376 6.2418e-015 -5 3.1927e-015 -3.04504 7.60892 7.30846 3.25554 -21.511 -13.2575 -7.95139e-016 -2.38542e-015 -0 12.4935 21.4379 -35.0696 100.341 -51.4933 75.6889 -0.453246 2.66453 19.3282 -7.95139e-016 -2.38542e-015 -0 -19.6624 -4.63464 30.5542 -134.171 -37.2225 -103.309 0.365875 2.40131 -17.3591 
103.788 89.1913 13.3796 -4.0407 -2.40656 96.2013 -3.32956 -34.0465 -5.36183 0.424367 45.819 -0.501419 1.00997 9.00393 0.980575 -1.72941e-015 -5 -1.59635e-015 6.94043 9.13319 1.52097 -0.158759 30.3956 0.300618 -2.96485 18.5787 0.0515124 1.0734e-015 -5 3.1927e-015 -1.79431 5.06948 7.24405 2.916 -18.2774 -11.6776 -7.95139e-016 4.77083e-015 1.59028e-015 10.6469 26.1414 -35.0884 103.172 -50.9459 78.122 -0.389648 2.47601 17.9097 -7.95139e-016 4.77083e-015 1.59028e-015 -20.2646 -1.78141 37.7863 -134.302 -37.1229 -103.405 0.380916 2.44909 -17.7169 
